# Blender 3.3.1
# www.blender.org
mtllib sander.mtl
o 立方体.002
v -2.125328 -0.333528 0.081597
v -2.700313 0.414634 0.081597
v -2.125328 -0.333528 -0.082496
v -2.700313 0.414634 -0.082496
v -2.013916 -0.247905 0.081597
v -2.588901 0.500257 0.081597
v -2.013916 -0.247905 -0.082496
v -2.588901 0.500257 -0.082496
v -2.056713 0.918944 0.082046
v -2.631698 1.667106 0.082046
v -2.056713 0.918944 -0.082046
v -2.631698 1.667106 -0.082046
v -1.945301 1.004567 0.082046
v -2.520286 1.752729 0.082046
v -1.945301 1.004567 -0.082046
v -2.520286 1.752729 -0.082046
v -2.700117 0.416329 0.081884
v -2.049567 1.099805 0.081884
v -2.700117 0.416329 -0.082209
v -2.049567 1.099805 -0.082209
v -2.598338 0.319453 0.081884
v -1.947788 1.002929 0.081884
v -2.598338 0.319453 -0.082209
v -1.947788 1.002929 -0.082209
v -2.768732 -0.836143 0.081056
v -2.118182 -0.152667 0.081056
v -2.768732 -0.836143 -0.083037
v -2.118182 -0.152667 -0.083037
v -2.666953 -0.933019 0.081056
v -2.016403 -0.249543 0.081056
v -2.666953 -0.933019 -0.083037
v -2.016403 -0.249543 -0.083037
v -2.192833 -1.583476 0.081597
v -2.767818 -0.835313 0.081597
v -2.192833 -1.583476 -0.082496
v -2.767818 -0.835313 -0.082496
v -2.081421 -1.497852 0.081597
v -2.656406 -0.749690 0.081597
v -2.081421 -1.497852 -0.082496
v -2.656406 -0.749690 -0.082496
vn -0.7929 -0.6094 -0.0000
vn -0.0000 -0.0000 -1.0000
vn 0.7929 0.6094 -0.0000
vn -0.0000 -0.0000 1.0000
vn 0.6094 -0.7929 -0.0000
vn -0.6094 0.7929 -0.0000
vn -0.7243 0.6894 -0.0000
vn 0.7243 -0.6894 -0.0000
vn -0.6894 -0.7243 -0.0000
vn 0.6894 0.7243 -0.0000
vt 0.746970 0.253036
vt 0.620452 0.379554
vt 0.873482 0.759108
vt 0.746970 0.379554
vt 0.620452 0.506072
vt 0.126512 0.985440
vt 0.620452 0.253036
vt 0.746970 0.126518
vt 0.873482 0.885626
vt 0.620452 0.379554
vt 0.746970 0.253036
vt 0.126512 0.858922
vt 0.620452 0.000000
vt 0.746970 0.379554
vt 0.746970 0.759108
vt 0.620452 0.126518
vt 0.746970 0.506072
vt 0.000000 0.985440
vt 0.620452 0.126518
vt 0.746970 0.000000
vt 0.746970 0.885626
vt 0.620452 0.253036
vt 0.746970 0.126518
vt 0.000000 0.858922
vt 0.873488 0.379554
vt 0.746969 0.000000
vt 0.506066 0.858922
vt 0.873488 0.506072
vt 0.746969 0.126518
vt 0.253031 0.985440
vt 0.746970 0.379554
vt 0.873487 0.253036
vt 0.506066 0.985440
vt 0.746970 0.506072
vt 0.873487 0.379554
vt 0.253031 0.858922
vt 0.873488 0.126518
vt 0.873487 0.000000
vt 0.379554 0.858922
vt 0.746970 0.126518
vt 0.873487 0.126518
vt 0.126518 0.985440
vt 0.746969 0.253036
vt 0.873488 0.253036
vt 0.379554 0.985440
vt 0.746969 0.379554
vt 0.746970 0.253036
vt 0.126518 0.858922
vt 0.544199 0.000000
vt 0.379554 0.000000
vt 0.544199 0.839668
vt 0.379554 0.839586
vt 0.253036 0.000000
vt 0.601388 0.858740
vt 0.506072 0.000000
vt 0.601388 0.019072
vt 0.253036 0.839586
vt 0.563262 0.019072
vt 0.379554 0.019336
vt 0.563262 0.858740
vt 0.379554 0.858922
vt 0.620452 0.839668
vt 0.506072 0.019336
vt 0.620452 0.000000
vt 0.506072 0.858922
vt 0.253036 0.858922
vt 0.253036 0.000000
vt 0.582325 0.858740
vt 0.000000 0.000000
vt 0.582325 0.019072
vt 0.253036 0.839586
vt 0.525135 0.000000
vt 0.126518 0.000000
vt 0.525135 0.839668
vt 0.126518 0.839586
vt 0.563262 0.839668
vt 0.000000 0.019336
vt 0.000000 0.858922
vt 0.563262 0.000000
vt 0.253036 0.858922
vt 0.506072 0.019072
vt 0.126518 0.019336
vt 0.506072 0.858740
vt 0.126518 0.858922
vt 0.873488 0.632590
vt 0.620452 0.506072
vt 0.379549 0.858922
vt 0.746970 0.632590
vt 0.620452 0.632590
vt 1.000000 0.126518
vt 0.873488 0.506072
vt 0.873487 0.632590
vt 0.379549 0.985440
vt 0.746970 0.506072
vt 0.873487 0.759108
vt 1.000000 0.000000
vt 0.746970 0.759108
vt 0.746970 0.506072
vt 0.253036 0.858922
vt 0.620452 0.759108
vt 0.746970 0.632590
vt 0.873487 0.126518
vt 0.746969 0.632590
vt 0.746970 0.885626
vt 0.253036 0.985440
vt 0.746969 0.759108
vt 0.620452 0.885626
vt 0.873487 0.000000
s 0
usemtl マテリアル.001
f 1/1/1 2/4/1 4/10/1 3/7/1
f 3/8/2 4/11/2 8/22/2 7/19/2
f 7/20/3 8/23/3 6/16/3 5/13/3
f 5/14/4 6/17/4 2/5/4 1/2/4
f 3/9/5 7/21/5 5/15/5 1/3/5
f 8/24/6 4/12/6 2/6/6 6/18/6
f 9/25/1 10/28/1 12/34/1 11/31/1
f 11/32/2 12/35/2 16/46/2 15/43/2
f 15/44/3 16/47/3 14/40/3 13/37/3
f 13/38/4 14/41/4 10/29/4 9/26/4
f 11/33/5 15/45/5 13/39/5 9/27/5
f 16/48/6 12/36/6 10/30/6 14/42/6
f 17/50/7 18/52/7 20/57/7 19/53/7
f 19/54/2 20/56/2 24/64/2 23/62/2
f 23/63/8 24/65/8 22/61/8 21/59/8
f 21/58/4 22/60/4 18/51/4 17/49/4
f 19/55/9 23/63/9 21/59/9 17/50/9
f 24/66/10 20/57/10 18/52/10 22/61/10
f 25/67/7 26/71/7 28/75/7 27/73/7
f 27/72/2 28/74/2 32/83/2 31/81/2
f 31/82/8 32/84/8 30/78/8 29/77/8
f 29/76/4 30/79/4 26/70/4 25/68/4
f 27/73/9 31/82/9 29/77/9 25/69/9
f 32/84/10 28/75/10 26/71/10 30/80/10
f 33/85/1 34/88/1 36/94/1 35/91/1
f 35/92/2 36/95/2 40/106/2 39/103/2
f 39/104/3 40/107/3 38/100/3 37/97/3
f 37/98/4 38/101/4 34/89/4 33/86/4
f 35/93/5 39/105/5 37/99/5 33/87/5
f 40/108/6 36/96/6 34/90/6 38/102/6
o 立方体.001
v 1.932836 -0.325759 -0.079379
v 2.550587 0.387458 -0.087123
v 1.935064 -0.325907 0.084699
v 2.552814 0.387310 0.076954
v 1.826639 -0.233760 -0.077854
v 2.444389 0.479457 -0.085598
v 1.828866 -0.233908 0.086224
v 2.446617 0.479308 0.078479
v 1.937672 0.928581 -0.078763
v 2.555423 1.641798 -0.086507
v 1.939900 0.928433 0.085315
v 2.557651 1.641650 0.077571
v 1.831475 1.020580 -0.077238
v 2.449225 1.733797 -0.084982
v 1.833702 1.020432 0.086840
v 2.451453 1.733649 0.079096
v 2.550486 0.389162 -0.087408
v 1.941131 1.109551 -0.078484
v 2.552714 0.389014 0.076670
v 1.943359 1.109403 0.085594
v 2.443219 0.298410 -0.086034
v 1.833863 1.018800 -0.077109
v 2.445447 0.298262 0.078044
v 1.836091 1.018651 0.086968
v 2.545656 -0.865180 -0.087647
v 1.936300 -0.144790 -0.078723
v 2.547884 -0.865328 0.076431
v 1.938528 -0.144939 0.085355
v 2.438388 -0.955931 -0.086272
v 1.829033 -0.235542 -0.077348
v 2.440616 -0.956079 0.077806
v 1.831260 -0.235690 0.086730
v 1.927034 -1.577515 -0.080430
v 2.544784 -0.864298 -0.088174
v 1.929261 -1.577663 0.083648
v 2.547012 -0.864446 0.075903
v 1.820836 -1.485516 -0.078905
v 2.438587 -0.772299 -0.086649
v 1.823064 -1.485664 0.085173
v 2.440815 -0.772447 0.077428
vn 0.7558 -0.6547 -0.0109
vn 0.0136 -0.0009 0.9999
vn -0.7558 0.6547 0.0109
vn -0.0136 0.0009 -0.9999
vn -0.6547 -0.7559 0.0082
vn 0.6547 0.7559 -0.0082
vn 0.7634 0.6459 -0.0098
vn -0.7634 -0.6459 0.0098
vn 0.6458 -0.7635 -0.0095
vn -0.6458 0.7635 0.0095
vt 0.375000 0.000000
vt 0.375000 1.000000
vt 0.125000 0.750000
vt 0.625000 0.000000
vt 0.625000 1.000000
vt 0.875000 0.750000
vt 0.375000 0.250000
vt 0.125000 0.500000
vt 0.625000 0.250000
vt 0.875000 0.500000
vt 0.375000 0.750000
vt 0.625000 0.750000
vt 0.375000 0.500000
vt 0.625000 0.500000
vt 0.375000 0.000000
vt 0.375000 1.000000
vt 0.125000 0.750000
vt 0.625000 0.000000
vt 0.625000 1.000000
vt 0.746970 0.759108
vt 0.375000 0.250000
vt 0.125000 0.500000
vt 0.625000 0.250000
vt 0.746970 0.632590
vt 0.375000 0.750000
vt 0.625000 0.750000
vt 0.620452 0.759108
vt 0.375000 0.500000
vt 0.625000 0.500000
vt 0.620452 0.632590
vt 0.375000 0.000000
vt 0.375000 1.000000
vt 0.873488 0.253036
vt 0.625000 0.000000
vt 0.625000 1.000000
vt 0.875000 0.750000
vt 0.375000 0.250000
vt 0.582325 0.858740
vt 0.873488 0.126518
vt 0.625000 0.250000
vt 0.582325 0.019072
vt 0.875000 0.500000
vt 0.375000 0.750000
vt 0.900453 0.253036
vt 0.625000 0.750000
vt 0.601388 0.839668
vt 0.375000 0.500000
vt 0.900453 0.126518
vt 0.601388 0.000000
vt 0.625000 0.500000
vt 0.375000 0.000000
vt 0.375000 1.000000
vt 0.125000 0.750000
vt 0.625000 0.000000
vt 0.625000 1.000000
vt 0.875000 0.750000
vt 0.375000 0.250000
vt 0.544199 0.000000
vt 0.125000 0.500000
vt 0.625000 0.250000
vt 0.544199 0.839668
vt 0.875000 0.500000
vt 0.375000 0.750000
vt 0.625000 0.750000
vt 0.525135 0.019072
vt 0.375000 0.500000
vt 0.525135 0.858740
vt 0.625000 0.500000
vt 0.375000 0.000000
vt 0.375000 1.000000
vt 0.125000 0.750000
vt 0.625000 0.000000
vt 0.625000 1.000000
vt 0.875000 0.750000
vt 0.375000 0.250000
vt 0.125000 0.500000
vt 0.625000 0.250000
vt 0.875000 0.500000
vt 0.375000 0.750000
vt 0.625000 0.750000
vt 0.375000 0.500000
vt 0.625000 0.500000
s 0
usemtl マテリアル
f 41/109/11 42/112/11 44/117/11 43/115/11
f 43/115/12 44/117/12 48/122/12 47/121/12
f 47/121/13 48/122/13 46/120/13 45/119/13
f 45/119/14 46/120/14 42/113/14 41/110/14
f 43/116/15 47/121/15 45/119/15 41/111/15
f 48/122/16 44/118/16 42/114/16 46/120/16
f 49/123/11 50/126/11 52/131/11 51/129/11
f 51/129/12 52/131/12 56/137/12 55/136/12
f 55/136/13 56/137/13 54/134/13 53/133/13
f 53/133/14 54/134/14 50/127/14 49/124/14
f 51/130/15 55/136/15 53/133/15 49/125/15
f 56/138/16 52/132/16 50/128/16 54/135/16
f 57/139/17 58/142/17 60/148/17 59/145/17
f 59/146/12 60/149/12 64/157/12 63/154/12
f 63/155/18 64/158/18 62/153/18 61/151/18
f 61/151/14 62/153/14 58/143/14 57/140/14
f 59/147/19 63/156/19 61/152/19 57/141/19
f 64/158/20 60/150/20 58/144/20 62/153/20
f 65/159/17 66/162/17 68/168/17 67/165/17
f 67/166/12 68/169/12 72/175/12 71/173/12
f 71/174/18 72/176/18 70/172/18 69/171/18
f 69/171/14 70/172/14 66/163/14 65/160/14
f 67/167/19 71/174/19 69/171/19 65/161/19
f 72/176/20 68/170/20 66/164/20 70/172/20
f 73/177/11 74/180/11 76/185/11 75/183/11
f 75/183/12 76/185/12 80/190/12 79/189/12
f 79/189/13 80/190/13 78/188/13 77/187/13
f 77/187/14 78/188/14 74/181/14 73/178/14
f 75/184/15 79/189/15 77/187/15 73/179/15
f 80/190/16 76/186/16 74/182/16 78/188/16
