# Blender 3.3.1
# www.blender.org
mtllib arrow.mtl
o 円柱
v 0.144000 0.799317 -0.633139
v 0.144000 2.799317 -0.633139
v 0.216922 0.799317 -0.629419
v 0.216922 2.799317 -0.629419
v 0.287042 0.799317 -0.618401
v 0.287042 2.799317 -0.618401
v 0.351665 0.799317 -0.600509
v 0.351665 2.799317 -0.600509
v 0.408308 0.799317 -0.576431
v 0.408308 2.799317 -0.576430
v 0.454793 0.799317 -0.547091
v 0.454793 2.799317 -0.547091
v 0.489335 0.799317 -0.513618
v 0.489335 2.799317 -0.513618
v 0.510605 0.799317 -0.477298
v 0.510605 2.799317 -0.477298
v 0.517787 0.799317 -0.439525
v 0.517787 2.799317 -0.439525
v 0.510605 0.799317 -0.401753
v 0.510605 2.799317 -0.401753
v 0.489335 0.799317 -0.365433
v 0.489335 2.799317 -0.365433
v 0.454793 0.799317 -0.331960
v 0.454793 2.799317 -0.331960
v 0.408308 0.799317 -0.302620
v 0.408308 2.799317 -0.302620
v 0.351665 0.799317 -0.278542
v 0.351665 2.799317 -0.278542
v 0.287042 0.799317 -0.260650
v 0.287042 2.799317 -0.260650
v 0.216922 0.799317 -0.249632
v 0.216922 2.799317 -0.249632
v 0.144000 0.799317 -0.245912
v 0.144000 2.799317 -0.245912
v 0.071077 0.799317 -0.249632
v 0.071077 2.799317 -0.249632
v 0.000957 0.799317 -0.260650
v 0.000957 2.799317 -0.260650
v -0.063666 0.799317 -0.278542
v -0.063666 2.799317 -0.278542
v -0.120308 0.799317 -0.302620
v -0.120308 2.799317 -0.302620
v -0.166793 0.799317 -0.331960
v -0.166793 2.799317 -0.331960
v -0.201335 0.799317 -0.365433
v -0.201335 2.799317 -0.365433
v -0.222606 0.799317 -0.401753
v -0.222606 2.799317 -0.401753
v -0.229788 0.799317 -0.439525
v -0.229788 2.799317 -0.439525
v -0.222606 0.799317 -0.477298
v -0.222606 2.799317 -0.477298
v -0.201335 0.799317 -0.513618
v -0.201335 2.799317 -0.513618
v -0.166793 0.799317 -0.547091
v -0.166793 2.799317 -0.547091
v -0.120308 0.799317 -0.576431
v -0.120308 2.799317 -0.576430
v -0.063666 0.799317 -0.600509
v -0.063666 2.799317 -0.600509
v 0.000957 0.799317 -0.618401
v 0.000957 2.799317 -0.618401
v 0.071077 0.799317 -0.629419
v 0.071077 2.799317 -0.629419
vn 0.0509 -0.0000 -0.9987
vn 0.1552 -0.0000 -0.9879
vn 0.2668 -0.0000 -0.9637
vn 0.3912 -0.0000 -0.9203
vn 0.5337 -0.0000 -0.8456
vn 0.6959 -0.0000 -0.7181
vn 0.8629 -0.0000 -0.5053
vn 0.9824 -0.0000 -0.1868
vn 0.9824 -0.0000 0.1868
vn 0.8629 -0.0000 0.5053
vn 0.6959 -0.0000 0.7181
vn 0.5337 -0.0000 0.8456
vn 0.3912 -0.0000 0.9203
vn 0.2668 -0.0000 0.9637
vn 0.1552 -0.0000 0.9879
vn 0.0509 -0.0000 0.9987
vn -0.0509 -0.0000 0.9987
vn -0.1552 -0.0000 0.9879
vn -0.2668 -0.0000 0.9637
vn -0.3912 -0.0000 0.9203
vn -0.5337 -0.0000 0.8456
vn -0.6959 -0.0000 0.7181
vn -0.8629 -0.0000 0.5054
vn -0.9824 -0.0000 0.1868
vn -0.9824 -0.0000 -0.1868
vn -0.8629 -0.0000 -0.5054
vn -0.6959 -0.0000 -0.7181
vn -0.5337 -0.0000 -0.8456
vn -0.3912 -0.0000 -0.9203
vn -0.2668 -0.0000 -0.9637
vn -0.0000 1.0000 -0.0000
vn -0.1552 -0.0000 -0.9879
vn -0.0509 -0.0000 -0.9987
vn -0.0000 -1.0000 -0.0000
vn -0.0000 1.0000 -0.0001
vn -0.0000 1.0000 0.0001
vt 1.000000 0.500000
vt 0.000000 0.500000
vt 0.750000 0.490000
vt 1.000000 1.000000
vt 0.000000 1.000000
vt 0.250000 0.490000
vt 0.968750 0.500000
vt 0.796822 0.485388
vt 0.968750 1.000000
vt 0.296822 0.485388
vt 0.937500 0.500000
vt 0.841844 0.471731
vt 0.937500 1.000000
vt 0.341844 0.471731
vt 0.906250 0.500000
vt 0.883337 0.449553
vt 0.906250 1.000000
vt 0.383337 0.449553
vt 0.875000 0.500000
vt 0.919706 0.419706
vt 0.875000 1.000000
vt 0.419706 0.419706
vt 0.843750 0.500000
vt 0.949553 0.383337
vt 0.843750 1.000000
vt 0.449553 0.383337
vt 0.812500 0.500000
vt 0.971731 0.341844
vt 0.812500 1.000000
vt 0.471731 0.341844
vt 0.985388 0.296822
vt 0.781250 0.500000
vt 0.781250 1.000000
vt 0.485388 0.296822
vt 0.990000 0.250000
vt 0.750000 0.500000
vt 0.750000 1.000000
vt 0.490000 0.250000
vt 0.985388 0.203178
vt 0.718750 0.500000
vt 0.718750 1.000000
vt 0.485388 0.203178
vt 0.971731 0.158156
vt 0.687500 0.500000
vt 0.687500 1.000000
vt 0.471731 0.158156
vt 0.949553 0.116663
vt 0.656250 0.500000
vt 0.656250 1.000000
vt 0.449553 0.116663
vt 0.919706 0.080294
vt 0.625000 0.500000
vt 0.625000 1.000000
vt 0.419706 0.080294
vt 0.883337 0.050447
vt 0.593750 0.500000
vt 0.593750 1.000000
vt 0.383337 0.050447
vt 0.841844 0.028269
vt 0.562500 0.500000
vt 0.562500 1.000000
vt 0.341844 0.028269
vt 0.796822 0.014612
vt 0.531250 0.500000
vt 0.531250 1.000000
vt 0.296822 0.014612
vt 0.750000 0.010000
vt 0.500000 0.500000
vt 0.500000 1.000000
vt 0.250000 0.010000
vt 0.703178 0.014612
vt 0.468750 0.500000
vt 0.468750 1.000000
vt 0.203178 0.014612
vt 0.658156 0.028269
vt 0.437500 0.500000
vt 0.437500 1.000000
vt 0.158156 0.028269
vt 0.616663 0.050447
vt 0.406250 0.500000
vt 0.406250 1.000000
vt 0.116663 0.050447
vt 0.580294 0.080294
vt 0.375000 0.500000
vt 0.375000 1.000000
vt 0.080294 0.080294
vt 0.550447 0.116663
vt 0.343750 0.500000
vt 0.343750 1.000000
vt 0.050447 0.116663
vt 0.528269 0.158156
vt 0.312500 0.500000
vt 0.312500 1.000000
vt 0.028269 0.158156
vt 0.514612 0.203178
vt 0.281250 0.500000
vt 0.281250 1.000000
vt 0.014612 0.203178
vt 0.510000 0.250000
vt 0.250000 0.500000
vt 0.250000 1.000000
vt 0.010000 0.250000
vt 0.514612 0.296822
vt 0.218750 0.500000
vt 0.218750 1.000000
vt 0.014612 0.296822
vt 0.187500 0.500000
vt 0.528269 0.341844
vt 0.187500 1.000000
vt 0.028269 0.341844
vt 0.156250 0.500000
vt 0.550447 0.383337
vt 0.156250 1.000000
vt 0.050447 0.383337
vt 0.125000 0.500000
vt 0.580294 0.419706
vt 0.125000 1.000000
vt 0.080294 0.419706
vt 0.093750 0.500000
vt 0.616663 0.449553
vt 0.093750 1.000000
vt 0.116663 0.449553
vt 0.062500 0.500000
vt 0.658156 0.471731
vt 0.062500 1.000000
vt 0.158156 0.471731
vt 0.031250 0.500000
vt 0.703178 0.485388
vt 0.031250 1.000000
vt 0.203178 0.485388
s 0
f 1/1/1 2/4/1 4/9/1 3/7/1
f 3/7/2 4/9/2 6/13/2 5/11/2
f 5/11/3 6/13/3 8/17/3 7/15/3
f 7/15/4 8/17/4 10/21/4 9/19/4
f 9/19/5 10/21/5 12/25/5 11/23/5
f 11/23/6 12/25/6 14/29/6 13/27/6
f 14/29/7 15/32/7 13/27/7
f 16/33/8 17/36/8 15/32/8
f 18/37/9 19/40/9 17/36/9
f 20/41/10 21/44/10 19/40/10
f 22/45/11 23/48/11 21/44/11
f 24/49/12 25/52/12 23/48/12
f 26/53/13 27/56/13 25/52/13
f 28/57/14 29/60/14 27/56/14
f 30/61/15 31/64/15 29/60/15
f 32/65/16 33/68/16 31/64/16
f 34/69/17 35/72/17 33/68/17
f 36/73/18 37/76/18 35/72/18
f 38/77/19 39/80/19 37/76/19
f 40/81/20 41/84/20 39/80/20
f 42/85/21 43/88/21 41/84/21
f 44/89/22 45/92/22 43/88/22
f 46/93/23 47/96/23 45/92/23
f 48/97/24 49/100/24 47/96/24
f 50/101/25 51/104/25 49/100/25
f 51/104/26 52/105/26 54/109/26 53/107/26
f 53/107/27 54/109/27 56/113/27 55/111/27
f 55/111/28 56/113/28 58/117/28 57/115/28
f 57/115/29 58/117/29 60/121/29 59/119/29
f 59/119/30 60/121/30 62/125/30 61/123/30
f 38/78/31 22/46/31 6/14/31
f 61/123/32 62/125/32 64/129/32 63/127/32
f 63/127/33 64/129/33 2/5/33 1/2/33
f 1/3/34 3/8/34 5/12/34 7/16/34 9/20/34 11/24/34 13/28/34 15/31/34 17/35/34 19/39/34 21/43/34 23/47/34 25/51/34 27/55/34 29/59/34 31/63/34 33/67/34 35/71/34 37/75/34 39/79/34 41/83/34 43/87/34 45/91/34 47/95/34 49/99/34 51/103/34 53/108/34 55/112/34 57/116/34 59/120/34 61/124/34 63/128/34
f 14/29/7 16/33/7 15/32/7
f 16/33/8 18/37/8 17/36/8
f 18/37/9 20/41/9 19/40/9
f 20/41/10 22/45/10 21/44/10
f 22/45/11 24/49/11 23/48/11
f 24/49/12 26/53/12 25/52/12
f 26/53/13 28/57/13 27/56/13
f 28/57/14 30/61/14 29/60/14
f 30/61/15 32/65/15 31/64/15
f 32/65/16 34/69/16 33/68/16
f 34/69/17 36/73/17 35/72/17
f 36/73/18 38/77/18 37/76/18
f 38/77/19 40/81/19 39/80/19
f 40/81/20 42/85/20 41/84/20
f 42/85/21 44/89/21 43/88/21
f 44/89/22 46/93/22 45/92/22
f 46/93/23 48/97/23 47/96/23
f 48/97/24 50/101/24 49/100/24
f 50/101/25 52/105/25 51/104/25
f 6/14/35 4/10/35 2/6/35
f 2/6/31 64/130/31 6/14/31
f 64/130/31 62/126/31 6/14/31
f 62/126/35 60/122/35 58/118/35
f 58/118/31 56/114/31 54/110/31
f 54/110/31 52/106/31 50/102/31
f 50/102/31 48/98/31 54/110/31
f 48/98/31 46/94/31 54/110/31
f 46/94/31 44/90/31 42/86/31
f 42/86/36 40/82/36 38/78/36
f 38/78/31 36/74/31 30/62/31
f 36/74/31 34/70/31 30/62/31
f 34/70/36 32/66/36 30/62/36
f 30/62/31 28/58/31 26/54/31
f 26/54/31 24/50/31 22/46/31
f 22/46/31 20/42/31 14/30/31
f 20/42/31 18/38/31 14/30/31
f 18/38/31 16/34/31 14/30/31
f 14/30/31 12/26/31 10/22/31
f 10/22/31 8/18/31 6/14/31
f 62/126/31 58/118/31 6/14/31
f 58/118/31 54/110/31 6/14/31
f 46/94/31 42/86/31 54/110/31
f 42/86/31 38/78/31 54/110/31
f 30/62/31 26/54/31 38/78/31
f 26/54/31 22/46/31 38/78/31
f 14/30/31 10/22/31 22/46/31
f 10/22/31 6/14/31 22/46/31
f 6/14/31 54/110/31 38/78/31
o 円錐
v 0.144149 1.039676 -0.849163
v -0.050941 1.039705 -0.841291
v -0.238535 1.039733 -0.817981
v -0.411421 1.039759 -0.780126
v -0.562958 1.039781 -0.729183
v -0.687321 1.039800 -0.667108
v -0.779731 1.039814 -0.596287
v -0.836636 1.039822 -0.519442
v -0.855851 1.039825 -0.439525
v -0.836636 1.039822 -0.359609
v -0.779731 1.039814 -0.282764
v -0.687321 1.039800 -0.211943
v -0.562958 1.039781 -0.149868
v -0.411421 1.039759 -0.098925
v -0.238535 1.039733 -0.061070
v -0.050941 1.039705 -0.037759
v 0.144149 1.039676 -0.029888
v 0.339239 1.039647 -0.037759
v 0.526832 1.039619 -0.061070
v 0.699719 1.039593 -0.098925
v 0.851256 1.039570 -0.149868
v 0.975619 1.039552 -0.211943
v 1.068028 1.039538 -0.282764
v 1.124934 1.039529 -0.359609
v 1.144149 1.039526 -0.439525
v 1.124934 1.039529 -0.519442
v 1.068028 1.039538 -0.596287
v 0.975619 1.039552 -0.667108
v 0.851256 1.039570 -0.729183
v 0.699719 1.039593 -0.780126
v 0.526832 1.039619 -0.817981
v 0.339239 1.039647 -0.841291
v 0.143851 -0.960324 -0.439525
vn -0.0395 -0.2005 -0.9789
vn -0.1207 -0.2068 -0.9709
vn -0.2087 -0.2202 -0.9529
vn -0.3092 -0.2424 -0.9196
vn -0.4293 -0.2762 -0.8599
vn -0.5754 -0.3245 -0.7507
vn -0.7416 -0.3855 -0.5491
vn -0.8745 -0.4371 -0.2102
vn -0.8745 -0.4371 0.2102
vn -0.7416 -0.3855 0.5491
vn -0.5754 -0.3245 0.7507
vn -0.4293 -0.2762 0.8599
vn -0.3092 -0.2424 0.9196
vn -0.2087 -0.2202 0.9529
vn -0.1207 -0.2068 0.9709
vn -0.0395 -0.2005 0.9789
vn 0.0395 -0.2005 0.9789
vn 0.1206 -0.2068 0.9709
vn 0.2086 -0.2203 0.9529
vn 0.3091 -0.2425 0.9196
vn 0.4292 -0.2764 0.8599
vn 0.5753 -0.3247 0.7507
vn 0.7414 -0.3857 0.5491
vn 0.8744 -0.4373 0.2102
vn 0.8744 -0.4373 -0.2102
vn 0.7414 -0.3857 -0.5491
vn 0.5753 -0.3247 -0.7507
vn 0.4292 -0.2764 -0.8599
vn 0.3091 -0.2425 -0.9196
vn 0.2086 -0.2203 -0.9529
vn 0.0001 1.0000 -0.0000
vn 0.1206 -0.2068 -0.9709
vn 0.0395 -0.2005 -0.9789
vn 0.0001 1.0000 -0.0001
vn 0.0002 1.0000 -0.0000
vn 0.0001 1.0000 0.0001
vt 0.250000 0.490000
vt 0.750000 0.490000
vt 0.296822 0.485388
vt 0.796822 0.485388
vt 0.341844 0.471731
vt 0.841844 0.471731
vt 0.383337 0.449553
vt 0.883337 0.449553
vt 0.419706 0.419706
vt 0.919706 0.419706
vt 0.449553 0.383337
vt 0.949553 0.383337
vt 0.471731 0.341844
vt 0.971731 0.341844
vt 0.485388 0.296822
vt 0.985388 0.296822
vt 0.490000 0.250000
vt 0.990000 0.250000
vt 0.485388 0.203178
vt 0.985388 0.203178
vt 0.471731 0.158156
vt 0.971731 0.158156
vt 0.449553 0.116663
vt 0.949553 0.116663
vt 0.419706 0.080294
vt 0.919706 0.080294
vt 0.383337 0.050447
vt 0.883337 0.050447
vt 0.341844 0.028269
vt 0.841844 0.028269
vt 0.296822 0.014612
vt 0.796822 0.014612
vt 0.250000 0.010000
vt 0.750000 0.010000
vt 0.203178 0.014612
vt 0.703178 0.014612
vt 0.158156 0.028269
vt 0.658156 0.028269
vt 0.116663 0.050447
vt 0.616663 0.050447
vt 0.080294 0.080294
vt 0.580294 0.080294
vt 0.050447 0.116663
vt 0.550447 0.116663
vt 0.028269 0.158156
vt 0.528269 0.158156
vt 0.014612 0.203178
vt 0.514612 0.203178
vt 0.010000 0.250000
vt 0.510000 0.250000
vt 0.014612 0.296822
vt 0.514612 0.296822
vt 0.028269 0.341844
vt 0.528269 0.341844
vt 0.050447 0.383337
vt 0.550447 0.383337
vt 0.080294 0.419706
vt 0.580294 0.419706
vt 0.116663 0.449553
vt 0.616663 0.449553
vt 0.158156 0.471731
vt 0.658156 0.471731
vt 0.203178 0.485388
vt 0.703178 0.485388
vt 0.250000 0.250000
s 0
usemtl マテリアル
f 65/131/37 97/195/37 66/133/37
f 66/133/38 97/195/38 67/135/38
f 67/135/39 97/195/39 68/137/39
f 68/137/40 97/195/40 69/139/40
f 69/139/41 97/195/41 70/141/41
f 70/141/42 97/195/42 71/143/42
f 71/143/43 97/195/43 72/145/43
f 72/145/44 97/195/44 73/147/44
f 73/147/45 97/195/45 74/149/45
f 74/149/46 97/195/46 75/151/46
f 75/151/47 97/195/47 76/153/47
f 76/153/48 97/195/48 77/155/48
f 77/155/49 97/195/49 78/157/49
f 78/157/50 97/195/50 79/159/50
f 79/159/51 97/195/51 80/161/51
f 80/161/52 97/195/52 81/163/52
f 81/163/53 97/195/53 82/165/53
f 82/165/54 97/195/54 83/167/54
f 83/167/55 97/195/55 84/169/55
f 84/169/56 97/195/56 85/171/56
f 85/171/57 97/195/57 86/173/57
f 86/173/58 97/195/58 87/175/58
f 87/175/59 97/195/59 88/177/59
f 88/177/60 97/195/60 89/179/60
f 89/179/61 97/195/61 90/181/61
f 90/181/62 97/195/62 91/183/62
f 91/183/63 97/195/63 92/185/63
f 92/185/64 97/195/64 93/187/64
f 93/187/65 97/195/65 94/189/65
f 94/189/66 97/195/66 95/191/66
f 80/162/67 88/178/67 96/194/67
f 95/191/68 97/195/68 96/193/68
f 96/193/69 97/195/69 65/131/69
f 96/194/67 65/132/67 66/134/67
f 66/134/67 67/136/67 68/138/67
f 68/138/70 69/140/70 70/142/70
f 70/142/71 71/144/71 72/146/71
f 72/146/71 73/148/71 74/150/71
f 74/150/71 75/152/71 76/154/71
f 76/154/72 77/156/72 78/158/72
f 78/158/67 79/160/67 80/162/67
f 80/162/67 81/164/67 82/166/67
f 82/166/67 83/168/67 84/170/67
f 84/170/71 85/172/71 86/174/71
f 86/174/67 87/176/67 88/178/67
f 88/178/71 89/180/71 90/182/71
f 90/182/67 91/184/67 92/186/67
f 92/186/71 93/188/71 94/190/71
f 94/190/67 95/192/67 96/194/67
f 96/194/67 66/134/67 72/146/67
f 66/134/71 68/138/71 72/146/71
f 68/138/67 70/142/67 72/146/67
f 72/146/67 74/150/67 80/162/67
f 74/150/71 76/154/71 80/162/71
f 76/154/71 78/158/71 80/162/71
f 80/162/67 82/166/67 88/178/67
f 82/166/67 84/170/67 88/178/67
f 84/170/67 86/174/67 88/178/67
f 88/178/71 90/182/71 96/194/71
f 90/182/67 92/186/67 96/194/67
f 92/186/71 94/190/71 96/194/71
f 96/194/67 72/146/67 80/162/67
