# Blender 3.3.1
# www.blender.org
mtllib wall.mtl
o Cube
v 1.000000 1.000000 -0.459812
v 1.000000 -1.000000 -0.459812
v 1.000000 1.000000 0.459812
v 1.000000 -1.000000 0.459812
v -1.000000 1.000000 -0.459812
v -1.000000 -1.000000 -0.459812
v -1.000000 1.000000 0.459812
v -1.000000 -1.000000 0.459812
vn -0.0000 1.0000 -0.0000
vn -0.0000 -0.0000 1.0000
vn -1.0000 -0.0000 -0.0000
vn -0.0000 -1.0000 -0.0000
vn 1.0000 -0.0000 -0.0000
vn -0.0000 -0.0000 -1.0000
vt 0.959812 0.500000
vt 0.729906 0.500000
vt 0.000000 1.000000
vt 0.729906 0.000000
vt 0.729906 1.000000
vt 0.000000 0.500000
vt 0.729906 0.500000
vt 0.500000 0.500000
vt 0.500000 1.000000
vt 0.500000 0.000000
vt 0.959812 1.000000
vt 0.729906 0.500000
vt 0.500000 1.000000
vt 0.729906 0.500000
vt 0.500000 0.500000
vt 0.729906 0.000000
vt 0.729906 1.000000
vt 0.000000 0.500000
vt 0.959812 0.500000
vt 0.959812 0.000000
vt 0.000000 0.000000
vt 0.500000 0.500000
s 0
usemtl Material
f 5/11/1 3/7/1 1/1/1
f 3/8/2 8/21/2 4/10/2
f 7/19/3 6/16/3 8/20/3
f 2/5/4 8/22/4 6/14/4
f 1/2/5 4/10/5 2/4/5
f 5/13/6 2/6/6 6/15/6
f 5/11/1 7/17/1 3/7/1
f 3/8/2 7/18/2 8/21/2
f 7/19/3 5/12/3 6/16/3
f 2/5/4 4/9/4 8/22/4
f 1/2/5 3/8/5 4/10/5
f 5/13/6 1/3/6 2/6/6
